# xmcd
#
# Track frame offsets:
#	150
#	12180
#	35273
#	56935
#	94621
#	111737
#	145375
#	185859
#	233504
#	278980
#
# Disc length: 4442 seconds
#
# Revision: 0
# Processed by: cddbd v1.4PL0 Copyright (c) Steve Scherf et al.
# Submitted via: audiograbber 1.81.02
#
DISCID=9111580a
DTITLE=Allman Brothers - 2002-03-16 - Beacon Theatre NYC NY - Disc 2
DYEAR=1900
DGENRE=
TTITLE0=abb2002-03 - 16d2t01
TTITLE1=abb2002-03 - 16d2t02
TTITLE2=abb2002-03 - 16d2t03
TTITLE3=abb2002-03 - 16d2t04
TTITLE4=abb2002-03 - 16d2t05
TTITLE5=abb2002-03 - 16d2t06
TTITLE6=abb2002-03 - 16d2t07
TTITLE7=abb2002-03 - 16d2t08
TTITLE8=abb2002-03 - 16d2t09
TTITLE9=abb2002-03 - 16d2t10
EXTD=
EXTT0=
EXTT1=
EXTT2=
EXTT3=
EXTT4=
EXTT5=
EXTT6=
EXTT7=
EXTT8=
EXTT9=
PLAYORDER=
